G04 #@! TF.FileFunction,Copper,L2,Bot,Signal*
%FSLAX46Y46*%
G04 Gerber Fmt 4.6, Leading zero omitted, Abs format (unit mm)*
G04 Created by KiCad (PCBNEW 4.0.6) date Thu Aug 31 18:27:20 2017*
%MOMM*%
%LPD*%
G01*
G04 APERTURE LIST*
%ADD10C,0.100000*%
%ADD11R,1.700000X1.700000*%
%ADD12O,1.700000X1.700000*%
%ADD13C,0.600000*%
%ADD14C,0.500000*%
%ADD15C,0.250000*%
%ADD16C,0.254000*%
G04 APERTURE END LIST*
D10*
D11*
X124460000Y-106680000D03*
D12*
X124460000Y-109220000D03*
D11*
X124460000Y-91440000D03*
D12*
X124460000Y-93980000D03*
X124460000Y-96520000D03*
X124460000Y-99060000D03*
X124460000Y-101600000D03*
D13*
X154940000Y-96440000D03*
X154940000Y-91360000D03*
X154940000Y-105410000D03*
X142748000Y-95504000D03*
X135382000Y-97536000D03*
X130556000Y-90170000D03*
X133858000Y-93980000D03*
X136652000Y-97790000D03*
X135128000Y-101092000D03*
X133270000Y-90170000D03*
X130810000Y-91948000D03*
X133350000Y-102108000D03*
X137160000Y-102108000D03*
D14*
X154940000Y-96440000D02*
X154940000Y-96520000D01*
X154940000Y-91440000D02*
X154940000Y-96520000D01*
X154940000Y-96520000D02*
X154940000Y-105410000D01*
X154940000Y-91360000D02*
X154940000Y-91440000D01*
X137414000Y-95504000D02*
X142748000Y-95504000D01*
X135382000Y-97536000D02*
X137414000Y-95504000D01*
D15*
X124460000Y-93980000D02*
X125730000Y-93980000D01*
X133858000Y-93218000D02*
X133858000Y-93980000D01*
X133604000Y-92964000D02*
X133858000Y-93218000D01*
X126746000Y-92964000D02*
X133604000Y-92964000D01*
X125730000Y-93980000D02*
X126746000Y-92964000D01*
X136652000Y-99568000D02*
X136652000Y-97790000D01*
X135128000Y-101092000D02*
X136652000Y-99568000D01*
X131492000Y-91948000D02*
X130810000Y-91948000D01*
X131492000Y-91948000D02*
X133270000Y-90170000D01*
X134112000Y-102108000D02*
X133350000Y-102108000D01*
X137160000Y-102108000D02*
X134112000Y-102108000D01*
D16*
G36*
X154813000Y-90222606D02*
X154813000Y-90678889D01*
X154805135Y-90678882D01*
X154554748Y-90782339D01*
X154363013Y-90973741D01*
X154259118Y-91223946D01*
X154258882Y-91494865D01*
X154309000Y-91616161D01*
X154309000Y-96183818D01*
X154259118Y-96303946D01*
X154258882Y-96574865D01*
X154309000Y-96696161D01*
X154309000Y-105153818D01*
X154259118Y-105273946D01*
X154258882Y-105544865D01*
X154362339Y-105795252D01*
X154553741Y-105986987D01*
X154803946Y-106090882D01*
X154813000Y-106090890D01*
X154813000Y-110437394D01*
X153617394Y-111633000D01*
X124512606Y-111633000D01*
X123317000Y-110437394D01*
X123317000Y-110128085D01*
X123578642Y-110415183D01*
X124103108Y-110661486D01*
X124333000Y-110540819D01*
X124333000Y-109347000D01*
X124587000Y-109347000D01*
X124587000Y-110540819D01*
X124816892Y-110661486D01*
X125341358Y-110415183D01*
X125731645Y-109986924D01*
X125901476Y-109576890D01*
X125780155Y-109347000D01*
X124587000Y-109347000D01*
X124333000Y-109347000D01*
X124313000Y-109347000D01*
X124313000Y-109093000D01*
X124333000Y-109093000D01*
X124333000Y-109073000D01*
X124587000Y-109073000D01*
X124587000Y-109093000D01*
X125780155Y-109093000D01*
X125901476Y-108863110D01*
X125731645Y-108453076D01*
X125341358Y-108024817D01*
X125114895Y-107918464D01*
X125310000Y-107918464D01*
X125451190Y-107891897D01*
X125580865Y-107808454D01*
X125667859Y-107681134D01*
X125698464Y-107530000D01*
X125698464Y-105830000D01*
X125671897Y-105688810D01*
X125588454Y-105559135D01*
X125461134Y-105472141D01*
X125310000Y-105441536D01*
X123610000Y-105441536D01*
X123468810Y-105468103D01*
X123339135Y-105551546D01*
X123317000Y-105583942D01*
X123317000Y-102508085D01*
X123578642Y-102795183D01*
X124103108Y-103041486D01*
X124333000Y-102920819D01*
X124333000Y-101727000D01*
X124587000Y-101727000D01*
X124587000Y-102920819D01*
X124816892Y-103041486D01*
X125341358Y-102795183D01*
X125731645Y-102366924D01*
X125783028Y-102242865D01*
X132668882Y-102242865D01*
X132772339Y-102493252D01*
X132963741Y-102684987D01*
X133213946Y-102788882D01*
X133484865Y-102789118D01*
X133735252Y-102685661D01*
X133807038Y-102614000D01*
X136702877Y-102614000D01*
X136773741Y-102684987D01*
X137023946Y-102788882D01*
X137294865Y-102789118D01*
X137545252Y-102685661D01*
X137736987Y-102494259D01*
X137840882Y-102244054D01*
X137841118Y-101973135D01*
X137737661Y-101722748D01*
X137546259Y-101531013D01*
X137296054Y-101427118D01*
X137025135Y-101426882D01*
X136774748Y-101530339D01*
X136702962Y-101602000D01*
X135581031Y-101602000D01*
X135704987Y-101478259D01*
X135808882Y-101228054D01*
X135808970Y-101126622D01*
X137009796Y-99925796D01*
X137119483Y-99761638D01*
X137158000Y-99568000D01*
X137158000Y-98247123D01*
X137228987Y-98176259D01*
X137332882Y-97926054D01*
X137333118Y-97655135D01*
X137229661Y-97404748D01*
X137038259Y-97213013D01*
X136788054Y-97109118D01*
X136701326Y-97109042D01*
X137675368Y-96135000D01*
X142491818Y-96135000D01*
X142611946Y-96184882D01*
X142882865Y-96185118D01*
X143133252Y-96081661D01*
X143324987Y-95890259D01*
X143428882Y-95640054D01*
X143429118Y-95369135D01*
X143325661Y-95118748D01*
X143134259Y-94927013D01*
X142884054Y-94823118D01*
X142613135Y-94822882D01*
X142491839Y-94873000D01*
X137414000Y-94873000D01*
X137172527Y-94921032D01*
X136967816Y-95057816D01*
X135116965Y-96908667D01*
X134996748Y-96958339D01*
X134805013Y-97149741D01*
X134701118Y-97399946D01*
X134700882Y-97670865D01*
X134804339Y-97921252D01*
X134995741Y-98112987D01*
X135245946Y-98216882D01*
X135516865Y-98217118D01*
X135767252Y-98113661D01*
X135958987Y-97922259D01*
X135970909Y-97893547D01*
X135970882Y-97924865D01*
X136074339Y-98175252D01*
X136146000Y-98247038D01*
X136146000Y-99358408D01*
X135093439Y-100410969D01*
X134993135Y-100410882D01*
X134742748Y-100514339D01*
X134551013Y-100705741D01*
X134447118Y-100955946D01*
X134446882Y-101226865D01*
X134550339Y-101477252D01*
X134674870Y-101602000D01*
X133807123Y-101602000D01*
X133736259Y-101531013D01*
X133486054Y-101427118D01*
X133215135Y-101426882D01*
X132964748Y-101530339D01*
X132773013Y-101721741D01*
X132669118Y-101971946D01*
X132668882Y-102242865D01*
X125783028Y-102242865D01*
X125901476Y-101956890D01*
X125780155Y-101727000D01*
X124587000Y-101727000D01*
X124333000Y-101727000D01*
X124313000Y-101727000D01*
X124313000Y-101473000D01*
X124333000Y-101473000D01*
X124333000Y-101453000D01*
X124587000Y-101453000D01*
X124587000Y-101473000D01*
X125780155Y-101473000D01*
X125901476Y-101243110D01*
X125731645Y-100833076D01*
X125341358Y-100404817D01*
X124916053Y-100205083D01*
X124955200Y-100197296D01*
X125354565Y-99930448D01*
X125621413Y-99531083D01*
X125715117Y-99060000D01*
X125621413Y-98588917D01*
X125354565Y-98189552D01*
X124955200Y-97922704D01*
X124484117Y-97829000D01*
X124435883Y-97829000D01*
X123964800Y-97922704D01*
X123565435Y-98189552D01*
X123317000Y-98561360D01*
X123317000Y-97018640D01*
X123565435Y-97390448D01*
X123964800Y-97657296D01*
X124435883Y-97751000D01*
X124484117Y-97751000D01*
X124955200Y-97657296D01*
X125354565Y-97390448D01*
X125621413Y-96991083D01*
X125715117Y-96520000D01*
X125621413Y-96048917D01*
X125354565Y-95649552D01*
X124955200Y-95382704D01*
X124484117Y-95289000D01*
X124435883Y-95289000D01*
X123964800Y-95382704D01*
X123565435Y-95649552D01*
X123317000Y-96021360D01*
X123317000Y-94478640D01*
X123565435Y-94850448D01*
X123964800Y-95117296D01*
X124435883Y-95211000D01*
X124484117Y-95211000D01*
X124955200Y-95117296D01*
X125354565Y-94850448D01*
X125598082Y-94486000D01*
X125730000Y-94486000D01*
X125923638Y-94447483D01*
X126087796Y-94337796D01*
X126955592Y-93470000D01*
X133352000Y-93470000D01*
X133352000Y-93522877D01*
X133281013Y-93593741D01*
X133177118Y-93843946D01*
X133176882Y-94114865D01*
X133280339Y-94365252D01*
X133471741Y-94556987D01*
X133721946Y-94660882D01*
X133992865Y-94661118D01*
X134243252Y-94557661D01*
X134434987Y-94366259D01*
X134538882Y-94116054D01*
X134539118Y-93845135D01*
X134435661Y-93594748D01*
X134364000Y-93522962D01*
X134364000Y-93218000D01*
X134325483Y-93024362D01*
X134215796Y-92860204D01*
X133961796Y-92606204D01*
X133797638Y-92496517D01*
X133604000Y-92458000D01*
X131263031Y-92458000D01*
X131267038Y-92454000D01*
X131492000Y-92454000D01*
X131685638Y-92415483D01*
X131849796Y-92305796D01*
X133304561Y-90851031D01*
X133404865Y-90851118D01*
X133655252Y-90747661D01*
X133846987Y-90556259D01*
X133950882Y-90306054D01*
X133951118Y-90035135D01*
X133847661Y-89784748D01*
X133656259Y-89593013D01*
X133406054Y-89489118D01*
X133135135Y-89488882D01*
X132884748Y-89592339D01*
X132693013Y-89783741D01*
X132589118Y-90033946D01*
X132589030Y-90135378D01*
X131282408Y-91442000D01*
X131267123Y-91442000D01*
X131196259Y-91371013D01*
X130946054Y-91267118D01*
X130675135Y-91266882D01*
X130424748Y-91370339D01*
X130233013Y-91561741D01*
X130129118Y-91811946D01*
X130128882Y-92082865D01*
X130232339Y-92333252D01*
X130356870Y-92458000D01*
X126746000Y-92458000D01*
X126552362Y-92496517D01*
X126388204Y-92606204D01*
X125566970Y-93427438D01*
X125354565Y-93109552D01*
X124955200Y-92842704D01*
X124484117Y-92749000D01*
X124435883Y-92749000D01*
X123964800Y-92842704D01*
X123565435Y-93109552D01*
X123317000Y-93481360D01*
X123317000Y-92538260D01*
X123331546Y-92560865D01*
X123458866Y-92647859D01*
X123610000Y-92678464D01*
X125310000Y-92678464D01*
X125451190Y-92651897D01*
X125580865Y-92568454D01*
X125667859Y-92441134D01*
X125698464Y-92290000D01*
X125698464Y-90590000D01*
X125671897Y-90448810D01*
X125588454Y-90319135D01*
X125461134Y-90232141D01*
X125310000Y-90201536D01*
X123610000Y-90201536D01*
X123468810Y-90228103D01*
X123339135Y-90311546D01*
X123317000Y-90343942D01*
X123317000Y-90222606D01*
X124512606Y-89027000D01*
X153617394Y-89027000D01*
X154813000Y-90222606D01*
X154813000Y-90222606D01*
G37*
X154813000Y-90222606D02*
X154813000Y-90678889D01*
X154805135Y-90678882D01*
X154554748Y-90782339D01*
X154363013Y-90973741D01*
X154259118Y-91223946D01*
X154258882Y-91494865D01*
X154309000Y-91616161D01*
X154309000Y-96183818D01*
X154259118Y-96303946D01*
X154258882Y-96574865D01*
X154309000Y-96696161D01*
X154309000Y-105153818D01*
X154259118Y-105273946D01*
X154258882Y-105544865D01*
X154362339Y-105795252D01*
X154553741Y-105986987D01*
X154803946Y-106090882D01*
X154813000Y-106090890D01*
X154813000Y-110437394D01*
X153617394Y-111633000D01*
X124512606Y-111633000D01*
X123317000Y-110437394D01*
X123317000Y-110128085D01*
X123578642Y-110415183D01*
X124103108Y-110661486D01*
X124333000Y-110540819D01*
X124333000Y-109347000D01*
X124587000Y-109347000D01*
X124587000Y-110540819D01*
X124816892Y-110661486D01*
X125341358Y-110415183D01*
X125731645Y-109986924D01*
X125901476Y-109576890D01*
X125780155Y-109347000D01*
X124587000Y-109347000D01*
X124333000Y-109347000D01*
X124313000Y-109347000D01*
X124313000Y-109093000D01*
X124333000Y-109093000D01*
X124333000Y-109073000D01*
X124587000Y-109073000D01*
X124587000Y-109093000D01*
X125780155Y-109093000D01*
X125901476Y-108863110D01*
X125731645Y-108453076D01*
X125341358Y-108024817D01*
X125114895Y-107918464D01*
X125310000Y-107918464D01*
X125451190Y-107891897D01*
X125580865Y-107808454D01*
X125667859Y-107681134D01*
X125698464Y-107530000D01*
X125698464Y-105830000D01*
X125671897Y-105688810D01*
X125588454Y-105559135D01*
X125461134Y-105472141D01*
X125310000Y-105441536D01*
X123610000Y-105441536D01*
X123468810Y-105468103D01*
X123339135Y-105551546D01*
X123317000Y-105583942D01*
X123317000Y-102508085D01*
X123578642Y-102795183D01*
X124103108Y-103041486D01*
X124333000Y-102920819D01*
X124333000Y-101727000D01*
X124587000Y-101727000D01*
X124587000Y-102920819D01*
X124816892Y-103041486D01*
X125341358Y-102795183D01*
X125731645Y-102366924D01*
X125783028Y-102242865D01*
X132668882Y-102242865D01*
X132772339Y-102493252D01*
X132963741Y-102684987D01*
X133213946Y-102788882D01*
X133484865Y-102789118D01*
X133735252Y-102685661D01*
X133807038Y-102614000D01*
X136702877Y-102614000D01*
X136773741Y-102684987D01*
X137023946Y-102788882D01*
X137294865Y-102789118D01*
X137545252Y-102685661D01*
X137736987Y-102494259D01*
X137840882Y-102244054D01*
X137841118Y-101973135D01*
X137737661Y-101722748D01*
X137546259Y-101531013D01*
X137296054Y-101427118D01*
X137025135Y-101426882D01*
X136774748Y-101530339D01*
X136702962Y-101602000D01*
X135581031Y-101602000D01*
X135704987Y-101478259D01*
X135808882Y-101228054D01*
X135808970Y-101126622D01*
X137009796Y-99925796D01*
X137119483Y-99761638D01*
X137158000Y-99568000D01*
X137158000Y-98247123D01*
X137228987Y-98176259D01*
X137332882Y-97926054D01*
X137333118Y-97655135D01*
X137229661Y-97404748D01*
X137038259Y-97213013D01*
X136788054Y-97109118D01*
X136701326Y-97109042D01*
X137675368Y-96135000D01*
X142491818Y-96135000D01*
X142611946Y-96184882D01*
X142882865Y-96185118D01*
X143133252Y-96081661D01*
X143324987Y-95890259D01*
X143428882Y-95640054D01*
X143429118Y-95369135D01*
X143325661Y-95118748D01*
X143134259Y-94927013D01*
X142884054Y-94823118D01*
X142613135Y-94822882D01*
X142491839Y-94873000D01*
X137414000Y-94873000D01*
X137172527Y-94921032D01*
X136967816Y-95057816D01*
X135116965Y-96908667D01*
X134996748Y-96958339D01*
X134805013Y-97149741D01*
X134701118Y-97399946D01*
X134700882Y-97670865D01*
X134804339Y-97921252D01*
X134995741Y-98112987D01*
X135245946Y-98216882D01*
X135516865Y-98217118D01*
X135767252Y-98113661D01*
X135958987Y-97922259D01*
X135970909Y-97893547D01*
X135970882Y-97924865D01*
X136074339Y-98175252D01*
X136146000Y-98247038D01*
X136146000Y-99358408D01*
X135093439Y-100410969D01*
X134993135Y-100410882D01*
X134742748Y-100514339D01*
X134551013Y-100705741D01*
X134447118Y-100955946D01*
X134446882Y-101226865D01*
X134550339Y-101477252D01*
X134674870Y-101602000D01*
X133807123Y-101602000D01*
X133736259Y-101531013D01*
X133486054Y-101427118D01*
X133215135Y-101426882D01*
X132964748Y-101530339D01*
X132773013Y-101721741D01*
X132669118Y-101971946D01*
X132668882Y-102242865D01*
X125783028Y-102242865D01*
X125901476Y-101956890D01*
X125780155Y-101727000D01*
X124587000Y-101727000D01*
X124333000Y-101727000D01*
X124313000Y-101727000D01*
X124313000Y-101473000D01*
X124333000Y-101473000D01*
X124333000Y-101453000D01*
X124587000Y-101453000D01*
X124587000Y-101473000D01*
X125780155Y-101473000D01*
X125901476Y-101243110D01*
X125731645Y-100833076D01*
X125341358Y-100404817D01*
X124916053Y-100205083D01*
X124955200Y-100197296D01*
X125354565Y-99930448D01*
X125621413Y-99531083D01*
X125715117Y-99060000D01*
X125621413Y-98588917D01*
X125354565Y-98189552D01*
X124955200Y-97922704D01*
X124484117Y-97829000D01*
X124435883Y-97829000D01*
X123964800Y-97922704D01*
X123565435Y-98189552D01*
X123317000Y-98561360D01*
X123317000Y-97018640D01*
X123565435Y-97390448D01*
X123964800Y-97657296D01*
X124435883Y-97751000D01*
X124484117Y-97751000D01*
X124955200Y-97657296D01*
X125354565Y-97390448D01*
X125621413Y-96991083D01*
X125715117Y-96520000D01*
X125621413Y-96048917D01*
X125354565Y-95649552D01*
X124955200Y-95382704D01*
X124484117Y-95289000D01*
X124435883Y-95289000D01*
X123964800Y-95382704D01*
X123565435Y-95649552D01*
X123317000Y-96021360D01*
X123317000Y-94478640D01*
X123565435Y-94850448D01*
X123964800Y-95117296D01*
X124435883Y-95211000D01*
X124484117Y-95211000D01*
X124955200Y-95117296D01*
X125354565Y-94850448D01*
X125598082Y-94486000D01*
X125730000Y-94486000D01*
X125923638Y-94447483D01*
X126087796Y-94337796D01*
X126955592Y-93470000D01*
X133352000Y-93470000D01*
X133352000Y-93522877D01*
X133281013Y-93593741D01*
X133177118Y-93843946D01*
X133176882Y-94114865D01*
X133280339Y-94365252D01*
X133471741Y-94556987D01*
X133721946Y-94660882D01*
X133992865Y-94661118D01*
X134243252Y-94557661D01*
X134434987Y-94366259D01*
X134538882Y-94116054D01*
X134539118Y-93845135D01*
X134435661Y-93594748D01*
X134364000Y-93522962D01*
X134364000Y-93218000D01*
X134325483Y-93024362D01*
X134215796Y-92860204D01*
X133961796Y-92606204D01*
X133797638Y-92496517D01*
X133604000Y-92458000D01*
X131263031Y-92458000D01*
X131267038Y-92454000D01*
X131492000Y-92454000D01*
X131685638Y-92415483D01*
X131849796Y-92305796D01*
X133304561Y-90851031D01*
X133404865Y-90851118D01*
X133655252Y-90747661D01*
X133846987Y-90556259D01*
X133950882Y-90306054D01*
X133951118Y-90035135D01*
X133847661Y-89784748D01*
X133656259Y-89593013D01*
X133406054Y-89489118D01*
X133135135Y-89488882D01*
X132884748Y-89592339D01*
X132693013Y-89783741D01*
X132589118Y-90033946D01*
X132589030Y-90135378D01*
X131282408Y-91442000D01*
X131267123Y-91442000D01*
X131196259Y-91371013D01*
X130946054Y-91267118D01*
X130675135Y-91266882D01*
X130424748Y-91370339D01*
X130233013Y-91561741D01*
X130129118Y-91811946D01*
X130128882Y-92082865D01*
X130232339Y-92333252D01*
X130356870Y-92458000D01*
X126746000Y-92458000D01*
X126552362Y-92496517D01*
X126388204Y-92606204D01*
X125566970Y-93427438D01*
X125354565Y-93109552D01*
X124955200Y-92842704D01*
X124484117Y-92749000D01*
X124435883Y-92749000D01*
X123964800Y-92842704D01*
X123565435Y-93109552D01*
X123317000Y-93481360D01*
X123317000Y-92538260D01*
X123331546Y-92560865D01*
X123458866Y-92647859D01*
X123610000Y-92678464D01*
X125310000Y-92678464D01*
X125451190Y-92651897D01*
X125580865Y-92568454D01*
X125667859Y-92441134D01*
X125698464Y-92290000D01*
X125698464Y-90590000D01*
X125671897Y-90448810D01*
X125588454Y-90319135D01*
X125461134Y-90232141D01*
X125310000Y-90201536D01*
X123610000Y-90201536D01*
X123468810Y-90228103D01*
X123339135Y-90311546D01*
X123317000Y-90343942D01*
X123317000Y-90222606D01*
X124512606Y-89027000D01*
X153617394Y-89027000D01*
X154813000Y-90222606D01*
M02*
