G04 #@! TF.FileFunction,Copper,L1,Top,Signal*
%FSLAX46Y46*%
G04 Gerber Fmt 4.6, Leading zero omitted, Abs format (unit mm)*
G04 Created by KiCad (PCBNEW 4.0.6) date Thu Aug 31 18:27:20 2017*
%MOMM*%
%LPD*%
G01*
G04 APERTURE LIST*
%ADD10C,0.100000*%
%ADD11R,1.300000X1.500000*%
%ADD12R,1.700000X1.700000*%
%ADD13O,1.700000X1.700000*%
%ADD14R,2.000000X0.700000*%
%ADD15R,1.500000X1.300000*%
%ADD16R,1.560000X0.650000*%
%ADD17R,1.450000X0.450000*%
%ADD18C,0.600000*%
%ADD19C,0.250000*%
%ADD20C,0.500000*%
%ADD21C,0.254000*%
G04 APERTURE END LIST*
D10*
D11*
X154940000Y-94060000D03*
X154940000Y-91360000D03*
X154940000Y-99140000D03*
X154940000Y-96440000D03*
X154940000Y-108030000D03*
X154940000Y-105330000D03*
D12*
X124460000Y-106680000D03*
D13*
X124460000Y-109220000D03*
D12*
X124460000Y-91440000D03*
D13*
X124460000Y-93980000D03*
X124460000Y-96520000D03*
X124460000Y-99060000D03*
X124460000Y-101600000D03*
D14*
X144350000Y-98110000D03*
X144350000Y-100010000D03*
X147750000Y-99060000D03*
X144350000Y-103190000D03*
X144350000Y-105090000D03*
X147750000Y-104140000D03*
X144350000Y-108270000D03*
X144350000Y-110170000D03*
X147750000Y-109220000D03*
D11*
X134620000Y-104060000D03*
X134620000Y-106760000D03*
D15*
X133270000Y-90170000D03*
X135970000Y-90170000D03*
X138350000Y-91440000D03*
X141050000Y-91440000D03*
X141050000Y-100330000D03*
X138350000Y-100330000D03*
X129620000Y-90170000D03*
X126920000Y-90170000D03*
X147400000Y-93980000D03*
X144700000Y-93980000D03*
X141050000Y-104140000D03*
X138350000Y-104140000D03*
X152480000Y-101600000D03*
X149780000Y-101600000D03*
X141050000Y-107950000D03*
X138350000Y-107950000D03*
X152480000Y-111760000D03*
X149780000Y-111760000D03*
D16*
X141050000Y-97470000D03*
X141050000Y-96520000D03*
X141050000Y-95570000D03*
X138350000Y-95570000D03*
X138350000Y-97470000D03*
X138350000Y-96520000D03*
D17*
X127860000Y-94865000D03*
X127860000Y-95515000D03*
X127860000Y-96165000D03*
X127860000Y-96815000D03*
X127860000Y-97465000D03*
X127860000Y-98115000D03*
X127860000Y-98765000D03*
X127860000Y-99415000D03*
X127860000Y-100065000D03*
X127860000Y-100715000D03*
X133760000Y-100715000D03*
X133760000Y-100065000D03*
X133760000Y-99415000D03*
X133760000Y-98765000D03*
X133760000Y-98115000D03*
X133760000Y-97465000D03*
X133760000Y-96815000D03*
X133760000Y-96165000D03*
X133760000Y-95515000D03*
X133760000Y-94865000D03*
D18*
X154940000Y-96440000D03*
X154940000Y-91360000D03*
X154940000Y-105410000D03*
X142748000Y-95504000D03*
X135382000Y-97536000D03*
X130556000Y-90170000D03*
X133858000Y-93980000D03*
X136652000Y-97790000D03*
X135128000Y-101092000D03*
X133270000Y-90170000D03*
X130810000Y-91948000D03*
X133350000Y-102108000D03*
X137160000Y-102108000D03*
D19*
X154940000Y-94060000D02*
X147480000Y-94060000D01*
X147480000Y-94060000D02*
X147400000Y-93980000D01*
D20*
X141130000Y-91360000D02*
X154940000Y-91360000D01*
X154940000Y-105410000D02*
X154940000Y-105330000D01*
D19*
X133760000Y-97465000D02*
X135311000Y-97465000D01*
D20*
X142682000Y-95570000D02*
X141050000Y-95570000D01*
X142748000Y-95504000D02*
X142682000Y-95570000D01*
X135311000Y-97465000D02*
X135382000Y-97536000D01*
D19*
X127860000Y-97465000D02*
X133760000Y-97465000D01*
D20*
X141050000Y-91440000D02*
X141050000Y-91266000D01*
X141050000Y-91266000D02*
X139954000Y-90170000D01*
X139954000Y-90170000D02*
X135970000Y-90170000D01*
X141050000Y-95570000D02*
X141050000Y-91440000D01*
X124460000Y-99060000D02*
X124968000Y-99060000D01*
X124968000Y-99060000D02*
X126563000Y-97465000D01*
D19*
X126563000Y-97465000D02*
X127860000Y-97465000D01*
D20*
X141130000Y-91360000D02*
X141050000Y-91440000D01*
D19*
X152480000Y-101600000D02*
X154940000Y-99140000D01*
X152480000Y-111760000D02*
X152480000Y-110490000D01*
X152480000Y-110490000D02*
X154940000Y-108030000D01*
X124460000Y-106680000D02*
X130556000Y-106680000D01*
X139700000Y-98820000D02*
X141050000Y-97470000D01*
X139700000Y-109474000D02*
X139700000Y-98820000D01*
X138938000Y-110236000D02*
X139700000Y-109474000D01*
X134112000Y-110236000D02*
X138938000Y-110236000D01*
X130556000Y-106680000D02*
X134112000Y-110236000D01*
D20*
X129620000Y-90170000D02*
X130556000Y-90170000D01*
D19*
X133760000Y-95515000D02*
X134863000Y-95515000D01*
X124460000Y-89408000D02*
X124460000Y-91440000D01*
X125222000Y-88646000D02*
X124460000Y-89408000D01*
X130810000Y-88646000D02*
X125222000Y-88646000D01*
X131318000Y-89154000D02*
X130810000Y-88646000D01*
X131318000Y-91186000D02*
X131318000Y-89154000D01*
X131826000Y-91694000D02*
X131318000Y-91186000D01*
X133350000Y-91694000D02*
X131826000Y-91694000D01*
X135128000Y-93472000D02*
X133350000Y-91694000D01*
X135128000Y-95250000D02*
X135128000Y-93472000D01*
X134863000Y-95515000D02*
X135128000Y-95250000D01*
X133760000Y-94078000D02*
X133760000Y-94865000D01*
X133858000Y-93980000D02*
X133760000Y-94078000D01*
X127860000Y-96815000D02*
X126279000Y-96815000D01*
X125984000Y-96520000D02*
X124460000Y-96520000D01*
X126279000Y-96815000D02*
X125984000Y-96520000D01*
X144700000Y-93980000D02*
X144700000Y-97760000D01*
X144700000Y-97760000D02*
X144350000Y-98110000D01*
X144350000Y-100010000D02*
X141370000Y-100010000D01*
X141370000Y-100010000D02*
X141050000Y-100330000D01*
X144968000Y-103190000D02*
X146558000Y-101600000D01*
X146558000Y-101600000D02*
X149780000Y-101600000D01*
X144350000Y-103190000D02*
X144968000Y-103190000D01*
X141050000Y-104140000D02*
X141478000Y-104140000D01*
X141478000Y-104140000D02*
X142428000Y-105090000D01*
X142428000Y-105090000D02*
X144350000Y-105090000D01*
X149780000Y-111760000D02*
X149780000Y-110570000D01*
X145940000Y-106680000D02*
X144350000Y-108270000D01*
X149860000Y-106680000D02*
X145940000Y-106680000D01*
X151130000Y-107950000D02*
X149860000Y-106680000D01*
X151130000Y-109220000D02*
X151130000Y-107950000D01*
X149780000Y-110570000D02*
X151130000Y-109220000D01*
X144350000Y-110170000D02*
X141290000Y-110170000D01*
X141050000Y-109930000D02*
X141050000Y-107950000D01*
X141290000Y-110170000D02*
X141050000Y-109930000D01*
X134620000Y-104060000D02*
X134620000Y-101600000D01*
X136972000Y-97470000D02*
X138350000Y-97470000D01*
X136652000Y-97790000D02*
X136972000Y-97470000D01*
X134620000Y-101600000D02*
X135128000Y-101092000D01*
X133760000Y-96815000D02*
X131613000Y-96815000D01*
X130810000Y-96012000D02*
X131613000Y-96815000D01*
X130810000Y-91948000D02*
X130810000Y-96012000D01*
X138350000Y-96520000D02*
X136144000Y-96520000D01*
X135849000Y-96815000D02*
X133760000Y-96815000D01*
X136144000Y-96520000D02*
X135849000Y-96815000D01*
X138350000Y-91440000D02*
X138350000Y-95570000D01*
X133760000Y-96165000D02*
X135483000Y-96165000D01*
X136078000Y-95570000D02*
X138350000Y-95570000D01*
X135483000Y-96165000D02*
X136078000Y-95570000D01*
X138350000Y-100330000D02*
X138350000Y-99996000D01*
X138350000Y-99996000D02*
X137119000Y-98765000D01*
X137119000Y-98765000D02*
X133760000Y-98765000D01*
X127860000Y-94865000D02*
X127860000Y-93824000D01*
X126920000Y-92884000D02*
X126920000Y-90170000D01*
X127860000Y-93824000D02*
X126920000Y-92884000D01*
X138350000Y-104140000D02*
X138350000Y-103298000D01*
X132345000Y-100065000D02*
X133760000Y-100065000D01*
X131826000Y-100584000D02*
X132345000Y-100065000D01*
X131826000Y-101600000D02*
X131826000Y-100584000D01*
X132334000Y-102108000D02*
X131826000Y-101600000D01*
X133350000Y-102108000D02*
X132334000Y-102108000D01*
X138350000Y-103298000D02*
X137160000Y-102108000D01*
X138350000Y-107950000D02*
X138350000Y-107870000D01*
X138350000Y-107870000D02*
X135890000Y-105410000D01*
X135890000Y-105410000D02*
X135890000Y-100330000D01*
X135890000Y-100330000D02*
X134975000Y-99415000D01*
X134975000Y-99415000D02*
X133760000Y-99415000D01*
D21*
G36*
X139911536Y-91019904D02*
X139911536Y-92090000D01*
X139938103Y-92231190D01*
X140021546Y-92360865D01*
X140148866Y-92447859D01*
X140300000Y-92478464D01*
X140419000Y-92478464D01*
X140419000Y-94856536D01*
X140270000Y-94856536D01*
X140128810Y-94883103D01*
X139999135Y-94966546D01*
X139912141Y-95093866D01*
X139881536Y-95245000D01*
X139881536Y-95685439D01*
X139731673Y-95835301D01*
X139635000Y-96068690D01*
X139635000Y-96234250D01*
X139793750Y-96393000D01*
X140923000Y-96393000D01*
X140923000Y-96373000D01*
X141177000Y-96373000D01*
X141177000Y-96393000D01*
X142306250Y-96393000D01*
X142465000Y-96234250D01*
X142465000Y-96201000D01*
X142682000Y-96201000D01*
X142762372Y-96185013D01*
X142882865Y-96185118D01*
X143133252Y-96081661D01*
X143324987Y-95890259D01*
X143428882Y-95640054D01*
X143429118Y-95369135D01*
X143325661Y-95118748D01*
X143134259Y-94927013D01*
X142884054Y-94823118D01*
X142613135Y-94822882D01*
X142362748Y-94926339D01*
X142350065Y-94939000D01*
X142057032Y-94939000D01*
X141981134Y-94887141D01*
X141830000Y-94856536D01*
X141681000Y-94856536D01*
X141681000Y-92478464D01*
X141800000Y-92478464D01*
X141941190Y-92451897D01*
X142070865Y-92368454D01*
X142157859Y-92241134D01*
X142188464Y-92090000D01*
X142188464Y-91991000D01*
X153901536Y-91991000D01*
X153901536Y-92110000D01*
X153928103Y-92251190D01*
X154011546Y-92380865D01*
X154138866Y-92467859D01*
X154290000Y-92498464D01*
X154813000Y-92498464D01*
X154813000Y-92921536D01*
X154290000Y-92921536D01*
X154148810Y-92948103D01*
X154019135Y-93031546D01*
X153932141Y-93158866D01*
X153901536Y-93310000D01*
X153901536Y-93554000D01*
X148538464Y-93554000D01*
X148538464Y-93330000D01*
X148511897Y-93188810D01*
X148428454Y-93059135D01*
X148301134Y-92972141D01*
X148150000Y-92941536D01*
X146650000Y-92941536D01*
X146508810Y-92968103D01*
X146379135Y-93051546D01*
X146292141Y-93178866D01*
X146261536Y-93330000D01*
X146261536Y-94630000D01*
X146288103Y-94771190D01*
X146371546Y-94900865D01*
X146498866Y-94987859D01*
X146650000Y-95018464D01*
X148150000Y-95018464D01*
X148291190Y-94991897D01*
X148420865Y-94908454D01*
X148507859Y-94781134D01*
X148538464Y-94630000D01*
X148538464Y-94566000D01*
X153901536Y-94566000D01*
X153901536Y-94810000D01*
X153928103Y-94951190D01*
X154011546Y-95080865D01*
X154138866Y-95167859D01*
X154290000Y-95198464D01*
X154813000Y-95198464D01*
X154813000Y-95301536D01*
X154290000Y-95301536D01*
X154148810Y-95328103D01*
X154019135Y-95411546D01*
X153932141Y-95538866D01*
X153901536Y-95690000D01*
X153901536Y-97190000D01*
X153928103Y-97331190D01*
X154011546Y-97460865D01*
X154138866Y-97547859D01*
X154290000Y-97578464D01*
X154813000Y-97578464D01*
X154813000Y-98001536D01*
X154290000Y-98001536D01*
X154148810Y-98028103D01*
X154019135Y-98111546D01*
X153932141Y-98238866D01*
X153901536Y-98390000D01*
X153901536Y-99462872D01*
X152802872Y-100561536D01*
X151730000Y-100561536D01*
X151588810Y-100588103D01*
X151459135Y-100671546D01*
X151372141Y-100798866D01*
X151341536Y-100950000D01*
X151341536Y-102250000D01*
X151368103Y-102391190D01*
X151451546Y-102520865D01*
X151578866Y-102607859D01*
X151730000Y-102638464D01*
X153230000Y-102638464D01*
X153371190Y-102611897D01*
X153500865Y-102528454D01*
X153587859Y-102401134D01*
X153618464Y-102250000D01*
X153618464Y-101177128D01*
X154517128Y-100278464D01*
X154813000Y-100278464D01*
X154813000Y-104191536D01*
X154290000Y-104191536D01*
X154148810Y-104218103D01*
X154019135Y-104301546D01*
X153932141Y-104428866D01*
X153901536Y-104580000D01*
X153901536Y-106080000D01*
X153928103Y-106221190D01*
X154011546Y-106350865D01*
X154138866Y-106437859D01*
X154290000Y-106468464D01*
X154813000Y-106468464D01*
X154813000Y-106891536D01*
X154290000Y-106891536D01*
X154148810Y-106918103D01*
X154019135Y-107001546D01*
X153932141Y-107128866D01*
X153901536Y-107280000D01*
X153901536Y-108352872D01*
X152122204Y-110132204D01*
X152012517Y-110296362D01*
X151974000Y-110490000D01*
X151974000Y-110721536D01*
X151730000Y-110721536D01*
X151588810Y-110748103D01*
X151459135Y-110831546D01*
X151372141Y-110958866D01*
X151341536Y-111110000D01*
X151341536Y-111633000D01*
X150918464Y-111633000D01*
X150918464Y-111110000D01*
X150891897Y-110968810D01*
X150808454Y-110839135D01*
X150681134Y-110752141D01*
X150530000Y-110721536D01*
X150344056Y-110721536D01*
X151487796Y-109577796D01*
X151597483Y-109413638D01*
X151636000Y-109220000D01*
X151636000Y-107950000D01*
X151597483Y-107756362D01*
X151487796Y-107592204D01*
X150217796Y-106322204D01*
X150053638Y-106212517D01*
X149860000Y-106174000D01*
X145940000Y-106174000D01*
X145746362Y-106212517D01*
X145582204Y-106322204D01*
X144372872Y-107531536D01*
X143350000Y-107531536D01*
X143208810Y-107558103D01*
X143079135Y-107641546D01*
X142992141Y-107768866D01*
X142961536Y-107920000D01*
X142961536Y-108620000D01*
X142988103Y-108761190D01*
X143071546Y-108890865D01*
X143198866Y-108977859D01*
X143350000Y-109008464D01*
X145350000Y-109008464D01*
X145491190Y-108981897D01*
X145620865Y-108898454D01*
X145707859Y-108771134D01*
X145713416Y-108743690D01*
X146115000Y-108743690D01*
X146115000Y-108934250D01*
X146273750Y-109093000D01*
X147623000Y-109093000D01*
X147623000Y-108393750D01*
X147877000Y-108393750D01*
X147877000Y-109093000D01*
X149226250Y-109093000D01*
X149385000Y-108934250D01*
X149385000Y-108743690D01*
X149288327Y-108510301D01*
X149109698Y-108331673D01*
X148876309Y-108235000D01*
X148035750Y-108235000D01*
X147877000Y-108393750D01*
X147623000Y-108393750D01*
X147464250Y-108235000D01*
X146623691Y-108235000D01*
X146390302Y-108331673D01*
X146211673Y-108510301D01*
X146115000Y-108743690D01*
X145713416Y-108743690D01*
X145738464Y-108620000D01*
X145738464Y-107920000D01*
X145711897Y-107778810D01*
X145651164Y-107684428D01*
X146149592Y-107186000D01*
X149650408Y-107186000D01*
X150624000Y-108159592D01*
X150624000Y-109010408D01*
X149422204Y-110212204D01*
X149312517Y-110376362D01*
X149274000Y-110570000D01*
X149274000Y-110721536D01*
X149030000Y-110721536D01*
X148888810Y-110748103D01*
X148759135Y-110831546D01*
X148672141Y-110958866D01*
X148641536Y-111110000D01*
X148641536Y-111633000D01*
X124512606Y-111633000D01*
X123317000Y-110437394D01*
X123317000Y-110128085D01*
X123578642Y-110415183D01*
X124103108Y-110661486D01*
X124333000Y-110540819D01*
X124333000Y-109347000D01*
X124587000Y-109347000D01*
X124587000Y-110540819D01*
X124816892Y-110661486D01*
X125341358Y-110415183D01*
X125731645Y-109986924D01*
X125901476Y-109576890D01*
X125780155Y-109347000D01*
X124587000Y-109347000D01*
X124333000Y-109347000D01*
X124313000Y-109347000D01*
X124313000Y-109093000D01*
X124333000Y-109093000D01*
X124333000Y-109073000D01*
X124587000Y-109073000D01*
X124587000Y-109093000D01*
X125780155Y-109093000D01*
X125901476Y-108863110D01*
X125731645Y-108453076D01*
X125341358Y-108024817D01*
X125114895Y-107918464D01*
X125310000Y-107918464D01*
X125451190Y-107891897D01*
X125580865Y-107808454D01*
X125667859Y-107681134D01*
X125698464Y-107530000D01*
X125698464Y-107186000D01*
X130346408Y-107186000D01*
X133754204Y-110593796D01*
X133918362Y-110703483D01*
X134112000Y-110742000D01*
X138938000Y-110742000D01*
X139131638Y-110703483D01*
X139295796Y-110593796D01*
X140057796Y-109831796D01*
X140070887Y-109812204D01*
X140167483Y-109667638D01*
X140206000Y-109474000D01*
X140206000Y-108969429D01*
X140300000Y-108988464D01*
X140544000Y-108988464D01*
X140544000Y-109930000D01*
X140582517Y-110123638D01*
X140692204Y-110287796D01*
X140932204Y-110527796D01*
X141096362Y-110637483D01*
X141290000Y-110676000D01*
X142997633Y-110676000D01*
X143071546Y-110790865D01*
X143198866Y-110877859D01*
X143350000Y-110908464D01*
X145350000Y-110908464D01*
X145491190Y-110881897D01*
X145620865Y-110798454D01*
X145707859Y-110671134D01*
X145738464Y-110520000D01*
X145738464Y-109820000D01*
X145711897Y-109678810D01*
X145628454Y-109549135D01*
X145564958Y-109505750D01*
X146115000Y-109505750D01*
X146115000Y-109696310D01*
X146211673Y-109929699D01*
X146390302Y-110108327D01*
X146623691Y-110205000D01*
X147464250Y-110205000D01*
X147623000Y-110046250D01*
X147623000Y-109347000D01*
X147877000Y-109347000D01*
X147877000Y-110046250D01*
X148035750Y-110205000D01*
X148876309Y-110205000D01*
X149109698Y-110108327D01*
X149288327Y-109929699D01*
X149385000Y-109696310D01*
X149385000Y-109505750D01*
X149226250Y-109347000D01*
X147877000Y-109347000D01*
X147623000Y-109347000D01*
X146273750Y-109347000D01*
X146115000Y-109505750D01*
X145564958Y-109505750D01*
X145501134Y-109462141D01*
X145350000Y-109431536D01*
X143350000Y-109431536D01*
X143208810Y-109458103D01*
X143079135Y-109541546D01*
X142995466Y-109664000D01*
X141556000Y-109664000D01*
X141556000Y-108988464D01*
X141800000Y-108988464D01*
X141941190Y-108961897D01*
X142070865Y-108878454D01*
X142157859Y-108751134D01*
X142188464Y-108600000D01*
X142188464Y-107300000D01*
X142161897Y-107158810D01*
X142078454Y-107029135D01*
X141951134Y-106942141D01*
X141800000Y-106911536D01*
X140300000Y-106911536D01*
X140206000Y-106929223D01*
X140206000Y-105159429D01*
X140300000Y-105178464D01*
X141800000Y-105178464D01*
X141800734Y-105178326D01*
X142070204Y-105447796D01*
X142234362Y-105557483D01*
X142428000Y-105596000D01*
X142997633Y-105596000D01*
X143071546Y-105710865D01*
X143198866Y-105797859D01*
X143350000Y-105828464D01*
X145350000Y-105828464D01*
X145491190Y-105801897D01*
X145620865Y-105718454D01*
X145707859Y-105591134D01*
X145738464Y-105440000D01*
X145738464Y-104740000D01*
X145711897Y-104598810D01*
X145628454Y-104469135D01*
X145564958Y-104425750D01*
X146115000Y-104425750D01*
X146115000Y-104616310D01*
X146211673Y-104849699D01*
X146390302Y-105028327D01*
X146623691Y-105125000D01*
X147464250Y-105125000D01*
X147623000Y-104966250D01*
X147623000Y-104267000D01*
X147877000Y-104267000D01*
X147877000Y-104966250D01*
X148035750Y-105125000D01*
X148876309Y-105125000D01*
X149109698Y-105028327D01*
X149288327Y-104849699D01*
X149385000Y-104616310D01*
X149385000Y-104425750D01*
X149226250Y-104267000D01*
X147877000Y-104267000D01*
X147623000Y-104267000D01*
X146273750Y-104267000D01*
X146115000Y-104425750D01*
X145564958Y-104425750D01*
X145501134Y-104382141D01*
X145350000Y-104351536D01*
X143350000Y-104351536D01*
X143208810Y-104378103D01*
X143079135Y-104461546D01*
X142995466Y-104584000D01*
X142637592Y-104584000D01*
X142188464Y-104134872D01*
X142188464Y-103490000D01*
X142161897Y-103348810D01*
X142078454Y-103219135D01*
X141951134Y-103132141D01*
X141800000Y-103101536D01*
X140300000Y-103101536D01*
X140206000Y-103119223D01*
X140206000Y-102840000D01*
X142961536Y-102840000D01*
X142961536Y-103540000D01*
X142988103Y-103681190D01*
X143071546Y-103810865D01*
X143198866Y-103897859D01*
X143350000Y-103928464D01*
X145350000Y-103928464D01*
X145491190Y-103901897D01*
X145620865Y-103818454D01*
X145707859Y-103691134D01*
X145713416Y-103663690D01*
X146115000Y-103663690D01*
X146115000Y-103854250D01*
X146273750Y-104013000D01*
X147623000Y-104013000D01*
X147623000Y-103313750D01*
X147877000Y-103313750D01*
X147877000Y-104013000D01*
X149226250Y-104013000D01*
X149385000Y-103854250D01*
X149385000Y-103663690D01*
X149288327Y-103430301D01*
X149109698Y-103251673D01*
X148876309Y-103155000D01*
X148035750Y-103155000D01*
X147877000Y-103313750D01*
X147623000Y-103313750D01*
X147464250Y-103155000D01*
X146623691Y-103155000D01*
X146390302Y-103251673D01*
X146211673Y-103430301D01*
X146115000Y-103663690D01*
X145713416Y-103663690D01*
X145738464Y-103540000D01*
X145738464Y-103135128D01*
X146767592Y-102106000D01*
X148641536Y-102106000D01*
X148641536Y-102250000D01*
X148668103Y-102391190D01*
X148751546Y-102520865D01*
X148878866Y-102607859D01*
X149030000Y-102638464D01*
X150530000Y-102638464D01*
X150671190Y-102611897D01*
X150800865Y-102528454D01*
X150887859Y-102401134D01*
X150918464Y-102250000D01*
X150918464Y-100950000D01*
X150891897Y-100808810D01*
X150808454Y-100679135D01*
X150681134Y-100592141D01*
X150530000Y-100561536D01*
X149030000Y-100561536D01*
X148888810Y-100588103D01*
X148759135Y-100671546D01*
X148672141Y-100798866D01*
X148641536Y-100950000D01*
X148641536Y-101094000D01*
X146558000Y-101094000D01*
X146364362Y-101132517D01*
X146221381Y-101228054D01*
X146200204Y-101242204D01*
X144990872Y-102451536D01*
X143350000Y-102451536D01*
X143208810Y-102478103D01*
X143079135Y-102561546D01*
X142992141Y-102688866D01*
X142961536Y-102840000D01*
X140206000Y-102840000D01*
X140206000Y-101349429D01*
X140300000Y-101368464D01*
X141800000Y-101368464D01*
X141941190Y-101341897D01*
X142070865Y-101258454D01*
X142157859Y-101131134D01*
X142188464Y-100980000D01*
X142188464Y-100516000D01*
X142997633Y-100516000D01*
X143071546Y-100630865D01*
X143198866Y-100717859D01*
X143350000Y-100748464D01*
X145350000Y-100748464D01*
X145491190Y-100721897D01*
X145620865Y-100638454D01*
X145707859Y-100511134D01*
X145738464Y-100360000D01*
X145738464Y-99660000D01*
X145711897Y-99518810D01*
X145628454Y-99389135D01*
X145564958Y-99345750D01*
X146115000Y-99345750D01*
X146115000Y-99536310D01*
X146211673Y-99769699D01*
X146390302Y-99948327D01*
X146623691Y-100045000D01*
X147464250Y-100045000D01*
X147623000Y-99886250D01*
X147623000Y-99187000D01*
X147877000Y-99187000D01*
X147877000Y-99886250D01*
X148035750Y-100045000D01*
X148876309Y-100045000D01*
X149109698Y-99948327D01*
X149288327Y-99769699D01*
X149385000Y-99536310D01*
X149385000Y-99345750D01*
X149226250Y-99187000D01*
X147877000Y-99187000D01*
X147623000Y-99187000D01*
X146273750Y-99187000D01*
X146115000Y-99345750D01*
X145564958Y-99345750D01*
X145501134Y-99302141D01*
X145350000Y-99271536D01*
X143350000Y-99271536D01*
X143208810Y-99298103D01*
X143079135Y-99381546D01*
X142995466Y-99504000D01*
X142139498Y-99504000D01*
X142078454Y-99409135D01*
X141951134Y-99322141D01*
X141800000Y-99291536D01*
X140300000Y-99291536D01*
X140206000Y-99309223D01*
X140206000Y-99029592D01*
X141052128Y-98183464D01*
X141830000Y-98183464D01*
X141971190Y-98156897D01*
X142100865Y-98073454D01*
X142187859Y-97946134D01*
X142218464Y-97795000D01*
X142218464Y-97760000D01*
X142961536Y-97760000D01*
X142961536Y-98460000D01*
X142988103Y-98601190D01*
X143071546Y-98730865D01*
X143198866Y-98817859D01*
X143350000Y-98848464D01*
X145350000Y-98848464D01*
X145491190Y-98821897D01*
X145620865Y-98738454D01*
X145707859Y-98611134D01*
X145713416Y-98583690D01*
X146115000Y-98583690D01*
X146115000Y-98774250D01*
X146273750Y-98933000D01*
X147623000Y-98933000D01*
X147623000Y-98233750D01*
X147877000Y-98233750D01*
X147877000Y-98933000D01*
X149226250Y-98933000D01*
X149385000Y-98774250D01*
X149385000Y-98583690D01*
X149288327Y-98350301D01*
X149109698Y-98171673D01*
X148876309Y-98075000D01*
X148035750Y-98075000D01*
X147877000Y-98233750D01*
X147623000Y-98233750D01*
X147464250Y-98075000D01*
X146623691Y-98075000D01*
X146390302Y-98171673D01*
X146211673Y-98350301D01*
X146115000Y-98583690D01*
X145713416Y-98583690D01*
X145738464Y-98460000D01*
X145738464Y-97760000D01*
X145711897Y-97618810D01*
X145628454Y-97489135D01*
X145501134Y-97402141D01*
X145350000Y-97371536D01*
X145206000Y-97371536D01*
X145206000Y-95018464D01*
X145450000Y-95018464D01*
X145591190Y-94991897D01*
X145720865Y-94908454D01*
X145807859Y-94781134D01*
X145838464Y-94630000D01*
X145838464Y-93330000D01*
X145811897Y-93188810D01*
X145728454Y-93059135D01*
X145601134Y-92972141D01*
X145450000Y-92941536D01*
X143950000Y-92941536D01*
X143808810Y-92968103D01*
X143679135Y-93051546D01*
X143592141Y-93178866D01*
X143561536Y-93330000D01*
X143561536Y-94630000D01*
X143588103Y-94771190D01*
X143671546Y-94900865D01*
X143798866Y-94987859D01*
X143950000Y-95018464D01*
X144194000Y-95018464D01*
X144194000Y-97371536D01*
X143350000Y-97371536D01*
X143208810Y-97398103D01*
X143079135Y-97481546D01*
X142992141Y-97608866D01*
X142961536Y-97760000D01*
X142218464Y-97760000D01*
X142218464Y-97354561D01*
X142368327Y-97204699D01*
X142465000Y-96971310D01*
X142465000Y-96805750D01*
X142306250Y-96647000D01*
X141177000Y-96647000D01*
X141177000Y-96667000D01*
X140923000Y-96667000D01*
X140923000Y-96647000D01*
X139793750Y-96647000D01*
X139635000Y-96805750D01*
X139635000Y-96971310D01*
X139731673Y-97204699D01*
X139881536Y-97354561D01*
X139881536Y-97795000D01*
X139901787Y-97902621D01*
X139342204Y-98462204D01*
X139232517Y-98626362D01*
X139194000Y-98820000D01*
X139194000Y-99310571D01*
X139100000Y-99291536D01*
X138361128Y-99291536D01*
X137476796Y-98407204D01*
X137312638Y-98297517D01*
X137141599Y-98263495D01*
X137228987Y-98176259D01*
X137281384Y-98050073D01*
X137291546Y-98065865D01*
X137418866Y-98152859D01*
X137570000Y-98183464D01*
X139130000Y-98183464D01*
X139271190Y-98156897D01*
X139400865Y-98073454D01*
X139487859Y-97946134D01*
X139518464Y-97795000D01*
X139518464Y-97145000D01*
X139491897Y-97003810D01*
X139487395Y-96996813D01*
X139487859Y-96996134D01*
X139518464Y-96845000D01*
X139518464Y-96195000D01*
X139491897Y-96053810D01*
X139487395Y-96046813D01*
X139487859Y-96046134D01*
X139518464Y-95895000D01*
X139518464Y-95245000D01*
X139491897Y-95103810D01*
X139408454Y-94974135D01*
X139281134Y-94887141D01*
X139130000Y-94856536D01*
X138856000Y-94856536D01*
X138856000Y-92478464D01*
X139100000Y-92478464D01*
X139241190Y-92451897D01*
X139370865Y-92368454D01*
X139457859Y-92241134D01*
X139488464Y-92090000D01*
X139488464Y-90801000D01*
X139692632Y-90801000D01*
X139911536Y-91019904D01*
X139911536Y-91019904D01*
G37*
X139911536Y-91019904D02*
X139911536Y-92090000D01*
X139938103Y-92231190D01*
X140021546Y-92360865D01*
X140148866Y-92447859D01*
X140300000Y-92478464D01*
X140419000Y-92478464D01*
X140419000Y-94856536D01*
X140270000Y-94856536D01*
X140128810Y-94883103D01*
X139999135Y-94966546D01*
X139912141Y-95093866D01*
X139881536Y-95245000D01*
X139881536Y-95685439D01*
X139731673Y-95835301D01*
X139635000Y-96068690D01*
X139635000Y-96234250D01*
X139793750Y-96393000D01*
X140923000Y-96393000D01*
X140923000Y-96373000D01*
X141177000Y-96373000D01*
X141177000Y-96393000D01*
X142306250Y-96393000D01*
X142465000Y-96234250D01*
X142465000Y-96201000D01*
X142682000Y-96201000D01*
X142762372Y-96185013D01*
X142882865Y-96185118D01*
X143133252Y-96081661D01*
X143324987Y-95890259D01*
X143428882Y-95640054D01*
X143429118Y-95369135D01*
X143325661Y-95118748D01*
X143134259Y-94927013D01*
X142884054Y-94823118D01*
X142613135Y-94822882D01*
X142362748Y-94926339D01*
X142350065Y-94939000D01*
X142057032Y-94939000D01*
X141981134Y-94887141D01*
X141830000Y-94856536D01*
X141681000Y-94856536D01*
X141681000Y-92478464D01*
X141800000Y-92478464D01*
X141941190Y-92451897D01*
X142070865Y-92368454D01*
X142157859Y-92241134D01*
X142188464Y-92090000D01*
X142188464Y-91991000D01*
X153901536Y-91991000D01*
X153901536Y-92110000D01*
X153928103Y-92251190D01*
X154011546Y-92380865D01*
X154138866Y-92467859D01*
X154290000Y-92498464D01*
X154813000Y-92498464D01*
X154813000Y-92921536D01*
X154290000Y-92921536D01*
X154148810Y-92948103D01*
X154019135Y-93031546D01*
X153932141Y-93158866D01*
X153901536Y-93310000D01*
X153901536Y-93554000D01*
X148538464Y-93554000D01*
X148538464Y-93330000D01*
X148511897Y-93188810D01*
X148428454Y-93059135D01*
X148301134Y-92972141D01*
X148150000Y-92941536D01*
X146650000Y-92941536D01*
X146508810Y-92968103D01*
X146379135Y-93051546D01*
X146292141Y-93178866D01*
X146261536Y-93330000D01*
X146261536Y-94630000D01*
X146288103Y-94771190D01*
X146371546Y-94900865D01*
X146498866Y-94987859D01*
X146650000Y-95018464D01*
X148150000Y-95018464D01*
X148291190Y-94991897D01*
X148420865Y-94908454D01*
X148507859Y-94781134D01*
X148538464Y-94630000D01*
X148538464Y-94566000D01*
X153901536Y-94566000D01*
X153901536Y-94810000D01*
X153928103Y-94951190D01*
X154011546Y-95080865D01*
X154138866Y-95167859D01*
X154290000Y-95198464D01*
X154813000Y-95198464D01*
X154813000Y-95301536D01*
X154290000Y-95301536D01*
X154148810Y-95328103D01*
X154019135Y-95411546D01*
X153932141Y-95538866D01*
X153901536Y-95690000D01*
X153901536Y-97190000D01*
X153928103Y-97331190D01*
X154011546Y-97460865D01*
X154138866Y-97547859D01*
X154290000Y-97578464D01*
X154813000Y-97578464D01*
X154813000Y-98001536D01*
X154290000Y-98001536D01*
X154148810Y-98028103D01*
X154019135Y-98111546D01*
X153932141Y-98238866D01*
X153901536Y-98390000D01*
X153901536Y-99462872D01*
X152802872Y-100561536D01*
X151730000Y-100561536D01*
X151588810Y-100588103D01*
X151459135Y-100671546D01*
X151372141Y-100798866D01*
X151341536Y-100950000D01*
X151341536Y-102250000D01*
X151368103Y-102391190D01*
X151451546Y-102520865D01*
X151578866Y-102607859D01*
X151730000Y-102638464D01*
X153230000Y-102638464D01*
X153371190Y-102611897D01*
X153500865Y-102528454D01*
X153587859Y-102401134D01*
X153618464Y-102250000D01*
X153618464Y-101177128D01*
X154517128Y-100278464D01*
X154813000Y-100278464D01*
X154813000Y-104191536D01*
X154290000Y-104191536D01*
X154148810Y-104218103D01*
X154019135Y-104301546D01*
X153932141Y-104428866D01*
X153901536Y-104580000D01*
X153901536Y-106080000D01*
X153928103Y-106221190D01*
X154011546Y-106350865D01*
X154138866Y-106437859D01*
X154290000Y-106468464D01*
X154813000Y-106468464D01*
X154813000Y-106891536D01*
X154290000Y-106891536D01*
X154148810Y-106918103D01*
X154019135Y-107001546D01*
X153932141Y-107128866D01*
X153901536Y-107280000D01*
X153901536Y-108352872D01*
X152122204Y-110132204D01*
X152012517Y-110296362D01*
X151974000Y-110490000D01*
X151974000Y-110721536D01*
X151730000Y-110721536D01*
X151588810Y-110748103D01*
X151459135Y-110831546D01*
X151372141Y-110958866D01*
X151341536Y-111110000D01*
X151341536Y-111633000D01*
X150918464Y-111633000D01*
X150918464Y-111110000D01*
X150891897Y-110968810D01*
X150808454Y-110839135D01*
X150681134Y-110752141D01*
X150530000Y-110721536D01*
X150344056Y-110721536D01*
X151487796Y-109577796D01*
X151597483Y-109413638D01*
X151636000Y-109220000D01*
X151636000Y-107950000D01*
X151597483Y-107756362D01*
X151487796Y-107592204D01*
X150217796Y-106322204D01*
X150053638Y-106212517D01*
X149860000Y-106174000D01*
X145940000Y-106174000D01*
X145746362Y-106212517D01*
X145582204Y-106322204D01*
X144372872Y-107531536D01*
X143350000Y-107531536D01*
X143208810Y-107558103D01*
X143079135Y-107641546D01*
X142992141Y-107768866D01*
X142961536Y-107920000D01*
X142961536Y-108620000D01*
X142988103Y-108761190D01*
X143071546Y-108890865D01*
X143198866Y-108977859D01*
X143350000Y-109008464D01*
X145350000Y-109008464D01*
X145491190Y-108981897D01*
X145620865Y-108898454D01*
X145707859Y-108771134D01*
X145713416Y-108743690D01*
X146115000Y-108743690D01*
X146115000Y-108934250D01*
X146273750Y-109093000D01*
X147623000Y-109093000D01*
X147623000Y-108393750D01*
X147877000Y-108393750D01*
X147877000Y-109093000D01*
X149226250Y-109093000D01*
X149385000Y-108934250D01*
X149385000Y-108743690D01*
X149288327Y-108510301D01*
X149109698Y-108331673D01*
X148876309Y-108235000D01*
X148035750Y-108235000D01*
X147877000Y-108393750D01*
X147623000Y-108393750D01*
X147464250Y-108235000D01*
X146623691Y-108235000D01*
X146390302Y-108331673D01*
X146211673Y-108510301D01*
X146115000Y-108743690D01*
X145713416Y-108743690D01*
X145738464Y-108620000D01*
X145738464Y-107920000D01*
X145711897Y-107778810D01*
X145651164Y-107684428D01*
X146149592Y-107186000D01*
X149650408Y-107186000D01*
X150624000Y-108159592D01*
X150624000Y-109010408D01*
X149422204Y-110212204D01*
X149312517Y-110376362D01*
X149274000Y-110570000D01*
X149274000Y-110721536D01*
X149030000Y-110721536D01*
X148888810Y-110748103D01*
X148759135Y-110831546D01*
X148672141Y-110958866D01*
X148641536Y-111110000D01*
X148641536Y-111633000D01*
X124512606Y-111633000D01*
X123317000Y-110437394D01*
X123317000Y-110128085D01*
X123578642Y-110415183D01*
X124103108Y-110661486D01*
X124333000Y-110540819D01*
X124333000Y-109347000D01*
X124587000Y-109347000D01*
X124587000Y-110540819D01*
X124816892Y-110661486D01*
X125341358Y-110415183D01*
X125731645Y-109986924D01*
X125901476Y-109576890D01*
X125780155Y-109347000D01*
X124587000Y-109347000D01*
X124333000Y-109347000D01*
X124313000Y-109347000D01*
X124313000Y-109093000D01*
X124333000Y-109093000D01*
X124333000Y-109073000D01*
X124587000Y-109073000D01*
X124587000Y-109093000D01*
X125780155Y-109093000D01*
X125901476Y-108863110D01*
X125731645Y-108453076D01*
X125341358Y-108024817D01*
X125114895Y-107918464D01*
X125310000Y-107918464D01*
X125451190Y-107891897D01*
X125580865Y-107808454D01*
X125667859Y-107681134D01*
X125698464Y-107530000D01*
X125698464Y-107186000D01*
X130346408Y-107186000D01*
X133754204Y-110593796D01*
X133918362Y-110703483D01*
X134112000Y-110742000D01*
X138938000Y-110742000D01*
X139131638Y-110703483D01*
X139295796Y-110593796D01*
X140057796Y-109831796D01*
X140070887Y-109812204D01*
X140167483Y-109667638D01*
X140206000Y-109474000D01*
X140206000Y-108969429D01*
X140300000Y-108988464D01*
X140544000Y-108988464D01*
X140544000Y-109930000D01*
X140582517Y-110123638D01*
X140692204Y-110287796D01*
X140932204Y-110527796D01*
X141096362Y-110637483D01*
X141290000Y-110676000D01*
X142997633Y-110676000D01*
X143071546Y-110790865D01*
X143198866Y-110877859D01*
X143350000Y-110908464D01*
X145350000Y-110908464D01*
X145491190Y-110881897D01*
X145620865Y-110798454D01*
X145707859Y-110671134D01*
X145738464Y-110520000D01*
X145738464Y-109820000D01*
X145711897Y-109678810D01*
X145628454Y-109549135D01*
X145564958Y-109505750D01*
X146115000Y-109505750D01*
X146115000Y-109696310D01*
X146211673Y-109929699D01*
X146390302Y-110108327D01*
X146623691Y-110205000D01*
X147464250Y-110205000D01*
X147623000Y-110046250D01*
X147623000Y-109347000D01*
X147877000Y-109347000D01*
X147877000Y-110046250D01*
X148035750Y-110205000D01*
X148876309Y-110205000D01*
X149109698Y-110108327D01*
X149288327Y-109929699D01*
X149385000Y-109696310D01*
X149385000Y-109505750D01*
X149226250Y-109347000D01*
X147877000Y-109347000D01*
X147623000Y-109347000D01*
X146273750Y-109347000D01*
X146115000Y-109505750D01*
X145564958Y-109505750D01*
X145501134Y-109462141D01*
X145350000Y-109431536D01*
X143350000Y-109431536D01*
X143208810Y-109458103D01*
X143079135Y-109541546D01*
X142995466Y-109664000D01*
X141556000Y-109664000D01*
X141556000Y-108988464D01*
X141800000Y-108988464D01*
X141941190Y-108961897D01*
X142070865Y-108878454D01*
X142157859Y-108751134D01*
X142188464Y-108600000D01*
X142188464Y-107300000D01*
X142161897Y-107158810D01*
X142078454Y-107029135D01*
X141951134Y-106942141D01*
X141800000Y-106911536D01*
X140300000Y-106911536D01*
X140206000Y-106929223D01*
X140206000Y-105159429D01*
X140300000Y-105178464D01*
X141800000Y-105178464D01*
X141800734Y-105178326D01*
X142070204Y-105447796D01*
X142234362Y-105557483D01*
X142428000Y-105596000D01*
X142997633Y-105596000D01*
X143071546Y-105710865D01*
X143198866Y-105797859D01*
X143350000Y-105828464D01*
X145350000Y-105828464D01*
X145491190Y-105801897D01*
X145620865Y-105718454D01*
X145707859Y-105591134D01*
X145738464Y-105440000D01*
X145738464Y-104740000D01*
X145711897Y-104598810D01*
X145628454Y-104469135D01*
X145564958Y-104425750D01*
X146115000Y-104425750D01*
X146115000Y-104616310D01*
X146211673Y-104849699D01*
X146390302Y-105028327D01*
X146623691Y-105125000D01*
X147464250Y-105125000D01*
X147623000Y-104966250D01*
X147623000Y-104267000D01*
X147877000Y-104267000D01*
X147877000Y-104966250D01*
X148035750Y-105125000D01*
X148876309Y-105125000D01*
X149109698Y-105028327D01*
X149288327Y-104849699D01*
X149385000Y-104616310D01*
X149385000Y-104425750D01*
X149226250Y-104267000D01*
X147877000Y-104267000D01*
X147623000Y-104267000D01*
X146273750Y-104267000D01*
X146115000Y-104425750D01*
X145564958Y-104425750D01*
X145501134Y-104382141D01*
X145350000Y-104351536D01*
X143350000Y-104351536D01*
X143208810Y-104378103D01*
X143079135Y-104461546D01*
X142995466Y-104584000D01*
X142637592Y-104584000D01*
X142188464Y-104134872D01*
X142188464Y-103490000D01*
X142161897Y-103348810D01*
X142078454Y-103219135D01*
X141951134Y-103132141D01*
X141800000Y-103101536D01*
X140300000Y-103101536D01*
X140206000Y-103119223D01*
X140206000Y-102840000D01*
X142961536Y-102840000D01*
X142961536Y-103540000D01*
X142988103Y-103681190D01*
X143071546Y-103810865D01*
X143198866Y-103897859D01*
X143350000Y-103928464D01*
X145350000Y-103928464D01*
X145491190Y-103901897D01*
X145620865Y-103818454D01*
X145707859Y-103691134D01*
X145713416Y-103663690D01*
X146115000Y-103663690D01*
X146115000Y-103854250D01*
X146273750Y-104013000D01*
X147623000Y-104013000D01*
X147623000Y-103313750D01*
X147877000Y-103313750D01*
X147877000Y-104013000D01*
X149226250Y-104013000D01*
X149385000Y-103854250D01*
X149385000Y-103663690D01*
X149288327Y-103430301D01*
X149109698Y-103251673D01*
X148876309Y-103155000D01*
X148035750Y-103155000D01*
X147877000Y-103313750D01*
X147623000Y-103313750D01*
X147464250Y-103155000D01*
X146623691Y-103155000D01*
X146390302Y-103251673D01*
X146211673Y-103430301D01*
X146115000Y-103663690D01*
X145713416Y-103663690D01*
X145738464Y-103540000D01*
X145738464Y-103135128D01*
X146767592Y-102106000D01*
X148641536Y-102106000D01*
X148641536Y-102250000D01*
X148668103Y-102391190D01*
X148751546Y-102520865D01*
X148878866Y-102607859D01*
X149030000Y-102638464D01*
X150530000Y-102638464D01*
X150671190Y-102611897D01*
X150800865Y-102528454D01*
X150887859Y-102401134D01*
X150918464Y-102250000D01*
X150918464Y-100950000D01*
X150891897Y-100808810D01*
X150808454Y-100679135D01*
X150681134Y-100592141D01*
X150530000Y-100561536D01*
X149030000Y-100561536D01*
X148888810Y-100588103D01*
X148759135Y-100671546D01*
X148672141Y-100798866D01*
X148641536Y-100950000D01*
X148641536Y-101094000D01*
X146558000Y-101094000D01*
X146364362Y-101132517D01*
X146221381Y-101228054D01*
X146200204Y-101242204D01*
X144990872Y-102451536D01*
X143350000Y-102451536D01*
X143208810Y-102478103D01*
X143079135Y-102561546D01*
X142992141Y-102688866D01*
X142961536Y-102840000D01*
X140206000Y-102840000D01*
X140206000Y-101349429D01*
X140300000Y-101368464D01*
X141800000Y-101368464D01*
X141941190Y-101341897D01*
X142070865Y-101258454D01*
X142157859Y-101131134D01*
X142188464Y-100980000D01*
X142188464Y-100516000D01*
X142997633Y-100516000D01*
X143071546Y-100630865D01*
X143198866Y-100717859D01*
X143350000Y-100748464D01*
X145350000Y-100748464D01*
X145491190Y-100721897D01*
X145620865Y-100638454D01*
X145707859Y-100511134D01*
X145738464Y-100360000D01*
X145738464Y-99660000D01*
X145711897Y-99518810D01*
X145628454Y-99389135D01*
X145564958Y-99345750D01*
X146115000Y-99345750D01*
X146115000Y-99536310D01*
X146211673Y-99769699D01*
X146390302Y-99948327D01*
X146623691Y-100045000D01*
X147464250Y-100045000D01*
X147623000Y-99886250D01*
X147623000Y-99187000D01*
X147877000Y-99187000D01*
X147877000Y-99886250D01*
X148035750Y-100045000D01*
X148876309Y-100045000D01*
X149109698Y-99948327D01*
X149288327Y-99769699D01*
X149385000Y-99536310D01*
X149385000Y-99345750D01*
X149226250Y-99187000D01*
X147877000Y-99187000D01*
X147623000Y-99187000D01*
X146273750Y-99187000D01*
X146115000Y-99345750D01*
X145564958Y-99345750D01*
X145501134Y-99302141D01*
X145350000Y-99271536D01*
X143350000Y-99271536D01*
X143208810Y-99298103D01*
X143079135Y-99381546D01*
X142995466Y-99504000D01*
X142139498Y-99504000D01*
X142078454Y-99409135D01*
X141951134Y-99322141D01*
X141800000Y-99291536D01*
X140300000Y-99291536D01*
X140206000Y-99309223D01*
X140206000Y-99029592D01*
X141052128Y-98183464D01*
X141830000Y-98183464D01*
X141971190Y-98156897D01*
X142100865Y-98073454D01*
X142187859Y-97946134D01*
X142218464Y-97795000D01*
X142218464Y-97760000D01*
X142961536Y-97760000D01*
X142961536Y-98460000D01*
X142988103Y-98601190D01*
X143071546Y-98730865D01*
X143198866Y-98817859D01*
X143350000Y-98848464D01*
X145350000Y-98848464D01*
X145491190Y-98821897D01*
X145620865Y-98738454D01*
X145707859Y-98611134D01*
X145713416Y-98583690D01*
X146115000Y-98583690D01*
X146115000Y-98774250D01*
X146273750Y-98933000D01*
X147623000Y-98933000D01*
X147623000Y-98233750D01*
X147877000Y-98233750D01*
X147877000Y-98933000D01*
X149226250Y-98933000D01*
X149385000Y-98774250D01*
X149385000Y-98583690D01*
X149288327Y-98350301D01*
X149109698Y-98171673D01*
X148876309Y-98075000D01*
X148035750Y-98075000D01*
X147877000Y-98233750D01*
X147623000Y-98233750D01*
X147464250Y-98075000D01*
X146623691Y-98075000D01*
X146390302Y-98171673D01*
X146211673Y-98350301D01*
X146115000Y-98583690D01*
X145713416Y-98583690D01*
X145738464Y-98460000D01*
X145738464Y-97760000D01*
X145711897Y-97618810D01*
X145628454Y-97489135D01*
X145501134Y-97402141D01*
X145350000Y-97371536D01*
X145206000Y-97371536D01*
X145206000Y-95018464D01*
X145450000Y-95018464D01*
X145591190Y-94991897D01*
X145720865Y-94908454D01*
X145807859Y-94781134D01*
X145838464Y-94630000D01*
X145838464Y-93330000D01*
X145811897Y-93188810D01*
X145728454Y-93059135D01*
X145601134Y-92972141D01*
X145450000Y-92941536D01*
X143950000Y-92941536D01*
X143808810Y-92968103D01*
X143679135Y-93051546D01*
X143592141Y-93178866D01*
X143561536Y-93330000D01*
X143561536Y-94630000D01*
X143588103Y-94771190D01*
X143671546Y-94900865D01*
X143798866Y-94987859D01*
X143950000Y-95018464D01*
X144194000Y-95018464D01*
X144194000Y-97371536D01*
X143350000Y-97371536D01*
X143208810Y-97398103D01*
X143079135Y-97481546D01*
X142992141Y-97608866D01*
X142961536Y-97760000D01*
X142218464Y-97760000D01*
X142218464Y-97354561D01*
X142368327Y-97204699D01*
X142465000Y-96971310D01*
X142465000Y-96805750D01*
X142306250Y-96647000D01*
X141177000Y-96647000D01*
X141177000Y-96667000D01*
X140923000Y-96667000D01*
X140923000Y-96647000D01*
X139793750Y-96647000D01*
X139635000Y-96805750D01*
X139635000Y-96971310D01*
X139731673Y-97204699D01*
X139881536Y-97354561D01*
X139881536Y-97795000D01*
X139901787Y-97902621D01*
X139342204Y-98462204D01*
X139232517Y-98626362D01*
X139194000Y-98820000D01*
X139194000Y-99310571D01*
X139100000Y-99291536D01*
X138361128Y-99291536D01*
X137476796Y-98407204D01*
X137312638Y-98297517D01*
X137141599Y-98263495D01*
X137228987Y-98176259D01*
X137281384Y-98050073D01*
X137291546Y-98065865D01*
X137418866Y-98152859D01*
X137570000Y-98183464D01*
X139130000Y-98183464D01*
X139271190Y-98156897D01*
X139400865Y-98073454D01*
X139487859Y-97946134D01*
X139518464Y-97795000D01*
X139518464Y-97145000D01*
X139491897Y-97003810D01*
X139487395Y-96996813D01*
X139487859Y-96996134D01*
X139518464Y-96845000D01*
X139518464Y-96195000D01*
X139491897Y-96053810D01*
X139487395Y-96046813D01*
X139487859Y-96046134D01*
X139518464Y-95895000D01*
X139518464Y-95245000D01*
X139491897Y-95103810D01*
X139408454Y-94974135D01*
X139281134Y-94887141D01*
X139130000Y-94856536D01*
X138856000Y-94856536D01*
X138856000Y-92478464D01*
X139100000Y-92478464D01*
X139241190Y-92451897D01*
X139370865Y-92368454D01*
X139457859Y-92241134D01*
X139488464Y-92090000D01*
X139488464Y-90801000D01*
X139692632Y-90801000D01*
X139911536Y-91019904D01*
G36*
X132558750Y-98002500D02*
X132817481Y-98002500D01*
X132883866Y-98047859D01*
X133035000Y-98078464D01*
X133907000Y-98078464D01*
X133907000Y-98151536D01*
X133035000Y-98151536D01*
X132893810Y-98178103D01*
X132817044Y-98227500D01*
X132558750Y-98227500D01*
X132400000Y-98386250D01*
X132400000Y-98466310D01*
X132496673Y-98699699D01*
X132646536Y-98849561D01*
X132646536Y-98990000D01*
X132666043Y-99093670D01*
X132646536Y-99190000D01*
X132646536Y-99559000D01*
X132345000Y-99559000D01*
X132151362Y-99597517D01*
X131987204Y-99707204D01*
X131468204Y-100226204D01*
X131358517Y-100390362D01*
X131320000Y-100584000D01*
X131320000Y-101600000D01*
X131358517Y-101793638D01*
X131468204Y-101957796D01*
X131976204Y-102465796D01*
X132140362Y-102575483D01*
X132334000Y-102614000D01*
X132892877Y-102614000D01*
X132963741Y-102684987D01*
X133213946Y-102788882D01*
X133484865Y-102789118D01*
X133735252Y-102685661D01*
X133926987Y-102494259D01*
X134030882Y-102244054D01*
X134031118Y-101973135D01*
X133927661Y-101722748D01*
X133736259Y-101531013D01*
X133486054Y-101427118D01*
X133215135Y-101426882D01*
X132964748Y-101530339D01*
X132892962Y-101602000D01*
X132543592Y-101602000D01*
X132332000Y-101390408D01*
X132332000Y-100793592D01*
X132554592Y-100571000D01*
X132646536Y-100571000D01*
X132646536Y-100940000D01*
X132673103Y-101081190D01*
X132756546Y-101210865D01*
X132883866Y-101297859D01*
X133035000Y-101328464D01*
X134204567Y-101328464D01*
X134152517Y-101406362D01*
X134114000Y-101600000D01*
X134114000Y-102921536D01*
X133970000Y-102921536D01*
X133828810Y-102948103D01*
X133699135Y-103031546D01*
X133612141Y-103158866D01*
X133581536Y-103310000D01*
X133581536Y-104810000D01*
X133608103Y-104951190D01*
X133691546Y-105080865D01*
X133818866Y-105167859D01*
X133970000Y-105198464D01*
X135270000Y-105198464D01*
X135384000Y-105177013D01*
X135384000Y-105375000D01*
X134905750Y-105375000D01*
X134747000Y-105533750D01*
X134747000Y-106633000D01*
X135746250Y-106633000D01*
X135905000Y-106474250D01*
X135905000Y-106140592D01*
X137211536Y-107447128D01*
X137211536Y-108600000D01*
X137238103Y-108741190D01*
X137321546Y-108870865D01*
X137448866Y-108957859D01*
X137600000Y-108988464D01*
X139100000Y-108988464D01*
X139194000Y-108970777D01*
X139194000Y-109264408D01*
X138728408Y-109730000D01*
X134321592Y-109730000D01*
X131637342Y-107045750D01*
X133335000Y-107045750D01*
X133335000Y-107636309D01*
X133431673Y-107869698D01*
X133610301Y-108048327D01*
X133843690Y-108145000D01*
X134334250Y-108145000D01*
X134493000Y-107986250D01*
X134493000Y-106887000D01*
X134747000Y-106887000D01*
X134747000Y-107986250D01*
X134905750Y-108145000D01*
X135396310Y-108145000D01*
X135629699Y-108048327D01*
X135808327Y-107869698D01*
X135905000Y-107636309D01*
X135905000Y-107045750D01*
X135746250Y-106887000D01*
X134747000Y-106887000D01*
X134493000Y-106887000D01*
X133493750Y-106887000D01*
X133335000Y-107045750D01*
X131637342Y-107045750D01*
X130913796Y-106322204D01*
X130749638Y-106212517D01*
X130556000Y-106174000D01*
X125698464Y-106174000D01*
X125698464Y-105883691D01*
X133335000Y-105883691D01*
X133335000Y-106474250D01*
X133493750Y-106633000D01*
X134493000Y-106633000D01*
X134493000Y-105533750D01*
X134334250Y-105375000D01*
X133843690Y-105375000D01*
X133610301Y-105471673D01*
X133431673Y-105650302D01*
X133335000Y-105883691D01*
X125698464Y-105883691D01*
X125698464Y-105830000D01*
X125671897Y-105688810D01*
X125588454Y-105559135D01*
X125461134Y-105472141D01*
X125310000Y-105441536D01*
X123610000Y-105441536D01*
X123468810Y-105468103D01*
X123339135Y-105551546D01*
X123317000Y-105583942D01*
X123317000Y-102508085D01*
X123578642Y-102795183D01*
X124103108Y-103041486D01*
X124333000Y-102920819D01*
X124333000Y-101727000D01*
X124587000Y-101727000D01*
X124587000Y-102920819D01*
X124816892Y-103041486D01*
X125341358Y-102795183D01*
X125731645Y-102366924D01*
X125901476Y-101956890D01*
X125780155Y-101727000D01*
X124587000Y-101727000D01*
X124333000Y-101727000D01*
X124313000Y-101727000D01*
X124313000Y-101473000D01*
X124333000Y-101473000D01*
X124333000Y-101453000D01*
X124587000Y-101453000D01*
X124587000Y-101473000D01*
X125780155Y-101473000D01*
X125901476Y-101243110D01*
X125731645Y-100833076D01*
X125341358Y-100404817D01*
X124916053Y-100205083D01*
X124955200Y-100197296D01*
X125354565Y-99930448D01*
X125621413Y-99531083D01*
X125679051Y-99241317D01*
X126746536Y-98173833D01*
X126746536Y-98340000D01*
X126766043Y-98443670D01*
X126746536Y-98540000D01*
X126746536Y-98990000D01*
X126766043Y-99093670D01*
X126746536Y-99190000D01*
X126746536Y-99640000D01*
X126766043Y-99743670D01*
X126746536Y-99840000D01*
X126746536Y-100290000D01*
X126766043Y-100393670D01*
X126746536Y-100490000D01*
X126746536Y-100940000D01*
X126773103Y-101081190D01*
X126856546Y-101210865D01*
X126983866Y-101297859D01*
X127135000Y-101328464D01*
X128585000Y-101328464D01*
X128726190Y-101301897D01*
X128855865Y-101218454D01*
X128942859Y-101091134D01*
X128973464Y-100940000D01*
X128973464Y-100490000D01*
X128953957Y-100386330D01*
X128973464Y-100290000D01*
X128973464Y-99840000D01*
X128953957Y-99736330D01*
X128973464Y-99640000D01*
X128973464Y-99190000D01*
X128953957Y-99086330D01*
X128973464Y-98990000D01*
X128973464Y-98540000D01*
X128953957Y-98436330D01*
X128973464Y-98340000D01*
X128973464Y-97971000D01*
X132527250Y-97971000D01*
X132558750Y-98002500D01*
X132558750Y-98002500D01*
G37*
X132558750Y-98002500D02*
X132817481Y-98002500D01*
X132883866Y-98047859D01*
X133035000Y-98078464D01*
X133907000Y-98078464D01*
X133907000Y-98151536D01*
X133035000Y-98151536D01*
X132893810Y-98178103D01*
X132817044Y-98227500D01*
X132558750Y-98227500D01*
X132400000Y-98386250D01*
X132400000Y-98466310D01*
X132496673Y-98699699D01*
X132646536Y-98849561D01*
X132646536Y-98990000D01*
X132666043Y-99093670D01*
X132646536Y-99190000D01*
X132646536Y-99559000D01*
X132345000Y-99559000D01*
X132151362Y-99597517D01*
X131987204Y-99707204D01*
X131468204Y-100226204D01*
X131358517Y-100390362D01*
X131320000Y-100584000D01*
X131320000Y-101600000D01*
X131358517Y-101793638D01*
X131468204Y-101957796D01*
X131976204Y-102465796D01*
X132140362Y-102575483D01*
X132334000Y-102614000D01*
X132892877Y-102614000D01*
X132963741Y-102684987D01*
X133213946Y-102788882D01*
X133484865Y-102789118D01*
X133735252Y-102685661D01*
X133926987Y-102494259D01*
X134030882Y-102244054D01*
X134031118Y-101973135D01*
X133927661Y-101722748D01*
X133736259Y-101531013D01*
X133486054Y-101427118D01*
X133215135Y-101426882D01*
X132964748Y-101530339D01*
X132892962Y-101602000D01*
X132543592Y-101602000D01*
X132332000Y-101390408D01*
X132332000Y-100793592D01*
X132554592Y-100571000D01*
X132646536Y-100571000D01*
X132646536Y-100940000D01*
X132673103Y-101081190D01*
X132756546Y-101210865D01*
X132883866Y-101297859D01*
X133035000Y-101328464D01*
X134204567Y-101328464D01*
X134152517Y-101406362D01*
X134114000Y-101600000D01*
X134114000Y-102921536D01*
X133970000Y-102921536D01*
X133828810Y-102948103D01*
X133699135Y-103031546D01*
X133612141Y-103158866D01*
X133581536Y-103310000D01*
X133581536Y-104810000D01*
X133608103Y-104951190D01*
X133691546Y-105080865D01*
X133818866Y-105167859D01*
X133970000Y-105198464D01*
X135270000Y-105198464D01*
X135384000Y-105177013D01*
X135384000Y-105375000D01*
X134905750Y-105375000D01*
X134747000Y-105533750D01*
X134747000Y-106633000D01*
X135746250Y-106633000D01*
X135905000Y-106474250D01*
X135905000Y-106140592D01*
X137211536Y-107447128D01*
X137211536Y-108600000D01*
X137238103Y-108741190D01*
X137321546Y-108870865D01*
X137448866Y-108957859D01*
X137600000Y-108988464D01*
X139100000Y-108988464D01*
X139194000Y-108970777D01*
X139194000Y-109264408D01*
X138728408Y-109730000D01*
X134321592Y-109730000D01*
X131637342Y-107045750D01*
X133335000Y-107045750D01*
X133335000Y-107636309D01*
X133431673Y-107869698D01*
X133610301Y-108048327D01*
X133843690Y-108145000D01*
X134334250Y-108145000D01*
X134493000Y-107986250D01*
X134493000Y-106887000D01*
X134747000Y-106887000D01*
X134747000Y-107986250D01*
X134905750Y-108145000D01*
X135396310Y-108145000D01*
X135629699Y-108048327D01*
X135808327Y-107869698D01*
X135905000Y-107636309D01*
X135905000Y-107045750D01*
X135746250Y-106887000D01*
X134747000Y-106887000D01*
X134493000Y-106887000D01*
X133493750Y-106887000D01*
X133335000Y-107045750D01*
X131637342Y-107045750D01*
X130913796Y-106322204D01*
X130749638Y-106212517D01*
X130556000Y-106174000D01*
X125698464Y-106174000D01*
X125698464Y-105883691D01*
X133335000Y-105883691D01*
X133335000Y-106474250D01*
X133493750Y-106633000D01*
X134493000Y-106633000D01*
X134493000Y-105533750D01*
X134334250Y-105375000D01*
X133843690Y-105375000D01*
X133610301Y-105471673D01*
X133431673Y-105650302D01*
X133335000Y-105883691D01*
X125698464Y-105883691D01*
X125698464Y-105830000D01*
X125671897Y-105688810D01*
X125588454Y-105559135D01*
X125461134Y-105472141D01*
X125310000Y-105441536D01*
X123610000Y-105441536D01*
X123468810Y-105468103D01*
X123339135Y-105551546D01*
X123317000Y-105583942D01*
X123317000Y-102508085D01*
X123578642Y-102795183D01*
X124103108Y-103041486D01*
X124333000Y-102920819D01*
X124333000Y-101727000D01*
X124587000Y-101727000D01*
X124587000Y-102920819D01*
X124816892Y-103041486D01*
X125341358Y-102795183D01*
X125731645Y-102366924D01*
X125901476Y-101956890D01*
X125780155Y-101727000D01*
X124587000Y-101727000D01*
X124333000Y-101727000D01*
X124313000Y-101727000D01*
X124313000Y-101473000D01*
X124333000Y-101473000D01*
X124333000Y-101453000D01*
X124587000Y-101453000D01*
X124587000Y-101473000D01*
X125780155Y-101473000D01*
X125901476Y-101243110D01*
X125731645Y-100833076D01*
X125341358Y-100404817D01*
X124916053Y-100205083D01*
X124955200Y-100197296D01*
X125354565Y-99930448D01*
X125621413Y-99531083D01*
X125679051Y-99241317D01*
X126746536Y-98173833D01*
X126746536Y-98340000D01*
X126766043Y-98443670D01*
X126746536Y-98540000D01*
X126746536Y-98990000D01*
X126766043Y-99093670D01*
X126746536Y-99190000D01*
X126746536Y-99640000D01*
X126766043Y-99743670D01*
X126746536Y-99840000D01*
X126746536Y-100290000D01*
X126766043Y-100393670D01*
X126746536Y-100490000D01*
X126746536Y-100940000D01*
X126773103Y-101081190D01*
X126856546Y-101210865D01*
X126983866Y-101297859D01*
X127135000Y-101328464D01*
X128585000Y-101328464D01*
X128726190Y-101301897D01*
X128855865Y-101218454D01*
X128942859Y-101091134D01*
X128973464Y-100940000D01*
X128973464Y-100490000D01*
X128953957Y-100386330D01*
X128973464Y-100290000D01*
X128973464Y-99840000D01*
X128953957Y-99736330D01*
X128973464Y-99640000D01*
X128973464Y-99190000D01*
X128953957Y-99086330D01*
X128973464Y-98990000D01*
X128973464Y-98540000D01*
X128953957Y-98436330D01*
X128973464Y-98340000D01*
X128973464Y-97971000D01*
X132527250Y-97971000D01*
X132558750Y-98002500D01*
G36*
X128331673Y-89160301D02*
X128235000Y-89393690D01*
X128235000Y-89884250D01*
X128393750Y-90043000D01*
X129493000Y-90043000D01*
X129493000Y-90023000D01*
X129747000Y-90023000D01*
X129747000Y-90043000D01*
X129767000Y-90043000D01*
X129767000Y-90297000D01*
X129747000Y-90297000D01*
X129747000Y-91296250D01*
X129905750Y-91455000D01*
X130339940Y-91455000D01*
X130233013Y-91561741D01*
X130129118Y-91811946D01*
X130128882Y-92082865D01*
X130232339Y-92333252D01*
X130304000Y-92405038D01*
X130304000Y-96012000D01*
X130342517Y-96205638D01*
X130452204Y-96369796D01*
X131041408Y-96959000D01*
X128973464Y-96959000D01*
X128973464Y-96590000D01*
X128953957Y-96486330D01*
X128973464Y-96390000D01*
X128973464Y-95940000D01*
X128953957Y-95836330D01*
X128973464Y-95740000D01*
X128973464Y-95290000D01*
X128953957Y-95186330D01*
X128973464Y-95090000D01*
X128973464Y-94640000D01*
X128946897Y-94498810D01*
X128863454Y-94369135D01*
X128736134Y-94282141D01*
X128585000Y-94251536D01*
X128366000Y-94251536D01*
X128366000Y-93824000D01*
X128327483Y-93630362D01*
X128217796Y-93466204D01*
X127426000Y-92674408D01*
X127426000Y-91208464D01*
X127670000Y-91208464D01*
X127811190Y-91181897D01*
X127940865Y-91098454D01*
X128027859Y-90971134D01*
X128058464Y-90820000D01*
X128058464Y-90455750D01*
X128235000Y-90455750D01*
X128235000Y-90946310D01*
X128331673Y-91179699D01*
X128510302Y-91358327D01*
X128743691Y-91455000D01*
X129334250Y-91455000D01*
X129493000Y-91296250D01*
X129493000Y-90297000D01*
X128393750Y-90297000D01*
X128235000Y-90455750D01*
X128058464Y-90455750D01*
X128058464Y-89520000D01*
X128031897Y-89378810D01*
X127948454Y-89249135D01*
X127821134Y-89162141D01*
X127771056Y-89152000D01*
X128339974Y-89152000D01*
X128331673Y-89160301D01*
X128331673Y-89160301D01*
G37*
X128331673Y-89160301D02*
X128235000Y-89393690D01*
X128235000Y-89884250D01*
X128393750Y-90043000D01*
X129493000Y-90043000D01*
X129493000Y-90023000D01*
X129747000Y-90023000D01*
X129747000Y-90043000D01*
X129767000Y-90043000D01*
X129767000Y-90297000D01*
X129747000Y-90297000D01*
X129747000Y-91296250D01*
X129905750Y-91455000D01*
X130339940Y-91455000D01*
X130233013Y-91561741D01*
X130129118Y-91811946D01*
X130128882Y-92082865D01*
X130232339Y-92333252D01*
X130304000Y-92405038D01*
X130304000Y-96012000D01*
X130342517Y-96205638D01*
X130452204Y-96369796D01*
X131041408Y-96959000D01*
X128973464Y-96959000D01*
X128973464Y-96590000D01*
X128953957Y-96486330D01*
X128973464Y-96390000D01*
X128973464Y-95940000D01*
X128953957Y-95836330D01*
X128973464Y-95740000D01*
X128973464Y-95290000D01*
X128953957Y-95186330D01*
X128973464Y-95090000D01*
X128973464Y-94640000D01*
X128946897Y-94498810D01*
X128863454Y-94369135D01*
X128736134Y-94282141D01*
X128585000Y-94251536D01*
X128366000Y-94251536D01*
X128366000Y-93824000D01*
X128327483Y-93630362D01*
X128217796Y-93466204D01*
X127426000Y-92674408D01*
X127426000Y-91208464D01*
X127670000Y-91208464D01*
X127811190Y-91181897D01*
X127940865Y-91098454D01*
X128027859Y-90971134D01*
X128058464Y-90820000D01*
X128058464Y-90455750D01*
X128235000Y-90455750D01*
X128235000Y-90946310D01*
X128331673Y-91179699D01*
X128510302Y-91358327D01*
X128743691Y-91455000D01*
X129334250Y-91455000D01*
X129493000Y-91296250D01*
X129493000Y-90297000D01*
X128393750Y-90297000D01*
X128235000Y-90455750D01*
X128058464Y-90455750D01*
X128058464Y-89520000D01*
X128031897Y-89378810D01*
X127948454Y-89249135D01*
X127821134Y-89162141D01*
X127771056Y-89152000D01*
X128339974Y-89152000D01*
X128331673Y-89160301D01*
M02*
