G04 #@! TF.FileFunction,Soldermask,Top*
%FSLAX46Y46*%
G04 Gerber Fmt 4.6, Leading zero omitted, Abs format (unit mm)*
G04 Created by KiCad (PCBNEW 4.0.6) date Thu Aug 31 18:27:20 2017*
%MOMM*%
%LPD*%
G01*
G04 APERTURE LIST*
%ADD10C,0.100000*%
%ADD11R,1.700000X1.900000*%
%ADD12R,2.100000X2.100000*%
%ADD13O,2.100000X2.100000*%
%ADD14R,2.400000X1.100000*%
%ADD15R,1.900000X1.700000*%
%ADD16R,1.960000X1.050000*%
%ADD17R,1.850000X0.850000*%
G04 APERTURE END LIST*
D10*
D11*
X154940000Y-94060000D03*
X154940000Y-91360000D03*
X154940000Y-99140000D03*
X154940000Y-96440000D03*
X154940000Y-108030000D03*
X154940000Y-105330000D03*
D12*
X124460000Y-106680000D03*
D13*
X124460000Y-109220000D03*
D12*
X124460000Y-91440000D03*
D13*
X124460000Y-93980000D03*
X124460000Y-96520000D03*
X124460000Y-99060000D03*
X124460000Y-101600000D03*
D14*
X144350000Y-98110000D03*
X144350000Y-100010000D03*
X147750000Y-99060000D03*
X144350000Y-103190000D03*
X144350000Y-105090000D03*
X147750000Y-104140000D03*
X144350000Y-108270000D03*
X144350000Y-110170000D03*
X147750000Y-109220000D03*
D11*
X134620000Y-104060000D03*
X134620000Y-106760000D03*
D15*
X133270000Y-90170000D03*
X135970000Y-90170000D03*
X138350000Y-91440000D03*
X141050000Y-91440000D03*
X141050000Y-100330000D03*
X138350000Y-100330000D03*
X129620000Y-90170000D03*
X126920000Y-90170000D03*
X147400000Y-93980000D03*
X144700000Y-93980000D03*
X141050000Y-104140000D03*
X138350000Y-104140000D03*
X152480000Y-101600000D03*
X149780000Y-101600000D03*
X141050000Y-107950000D03*
X138350000Y-107950000D03*
X152480000Y-111760000D03*
X149780000Y-111760000D03*
D16*
X141050000Y-97470000D03*
X141050000Y-96520000D03*
X141050000Y-95570000D03*
X138350000Y-95570000D03*
X138350000Y-97470000D03*
X138350000Y-96520000D03*
D17*
X127860000Y-94865000D03*
X127860000Y-95515000D03*
X127860000Y-96165000D03*
X127860000Y-96815000D03*
X127860000Y-97465000D03*
X127860000Y-98115000D03*
X127860000Y-98765000D03*
X127860000Y-99415000D03*
X127860000Y-100065000D03*
X127860000Y-100715000D03*
X133760000Y-100715000D03*
X133760000Y-100065000D03*
X133760000Y-99415000D03*
X133760000Y-98765000D03*
X133760000Y-98115000D03*
X133760000Y-97465000D03*
X133760000Y-96815000D03*
X133760000Y-96165000D03*
X133760000Y-95515000D03*
X133760000Y-94865000D03*
M02*
