M48
INCH,TZ
T1C0.016
T2C0.039
%
G90
G05
T1
X51400Y-35500
X51500Y-36200
X52469Y-35500
X52500Y-40200
X52700Y-37000
X53200Y-39800
X53300Y-38400
X53800Y-38500
X54000Y-40200
X56200Y-37600
X61000Y-35969
X61000Y-37969
X61000Y-41500
T2
X49000Y-36000
X49000Y-37000
X49000Y-38000
X49000Y-39000
X49000Y-40000
X49000Y-42000
X49000Y-43000
T0
M30
